<?xml version="1.0" encoding="utf-8"?>
<!-- Generator: Adobe Illustrator 27.6.1, SVG Export Plug-In . SVG Version: 6.00 Build 0)  -->
<svg version="1.1" id="Layer_1" xmlns="http://www.w3.org/2000/svg" xmlns:xlink="http://www.w3.org/1999/xlink" x="0px" y="0px"
	 viewBox="0 0 171 45" style="enable-background:new 0 0 171 45;" xml:space="preserve">
<style type="text/css">
	.st0{fill:#FFFFFF;}
	.st1{fill-rule:evenodd;clip-rule:evenodd;fill:#FFFFFF;}
</style>
<path class="st0" d="M10,30.5v-16h7.3c1.2,0,2.1,0.2,2.9,0.5c0.8,0.3,1.4,0.8,1.8,1.3c0.4,0.6,0.6,1.3,0.6,2c0,1-0.2,1.7-0.7,2.4
	c-0.4,0.6-1.1,1-1.9,1.3l-0.1-0.4c0.7,0.2,1.3,0.4,1.8,0.8c0.5,0.4,0.9,0.8,1.2,1.3c0.3,0.5,0.4,1.1,0.4,1.8c0,0.8-0.2,1.6-0.5,2.2
	c-0.3,0.6-0.7,1.1-1.3,1.5c-0.5,0.4-1.2,0.7-1.9,0.9c-0.7,0.2-1.5,0.3-2.3,0.3H10z M14.6,26.6h2.9c0.3,0,0.5,0,0.7-0.1
	c0.2-0.1,0.3-0.3,0.5-0.5c0.1-0.2,0.2-0.5,0.2-0.8c0-0.3-0.1-0.5-0.2-0.6c-0.1-0.2-0.3-0.3-0.5-0.4c-0.2-0.1-0.5-0.2-0.8-0.2h-2.8
	V26.6z M14.6,20.8h1.9c0.3,0,0.6,0,0.8-0.1c0.2-0.1,0.4-0.2,0.5-0.4c0.1-0.2,0.2-0.4,0.2-0.7c0-0.3-0.1-0.6-0.4-0.8
	c-0.2-0.2-0.6-0.3-1.2-0.3h-1.9V20.8z"/>
<path class="st0" d="M34.5,30.5l-4.9-7.2l-6.3-8.8h5.9l4.8,7.1l6.5,8.9H34.5z M34.3,23.1L30,21.4l3-4c1.8-2.4,4.7-3.9,7.8-3.9
	L34.3,23.1z"/>
<path class="st0" d="M29.2,21.9l4.3,1.7L30.2,28c-1.7,2.2-4.3,3.5-7.1,3.5h-0.5L29.2,21.9z"/>
<path class="st1" d="M53.1,13.5h11.8c0.9,0,0.9,2.2,0,2.2H53.1C52.2,15.7,52.2,13.5,53.1,13.5z"/>
<path class="st1" d="M55.6,16.7h10.6c0.9,0,0.9,2.2,0,2.2h-8.1c-0.2-0.3-0.5-0.5-0.7-0.8C56.8,17.5,56.3,17,55.6,16.7L55.6,16.7z"/>
<path class="st1" d="M58.7,19.8h4.4c0.9,0,0.9,2.2,0,2.2h-3.6C59.4,21.3,59.1,20.6,58.7,19.8z"/>
<path class="st1" d="M59.6,23h6c1,0,1,2.2,0,2.2h-6.1c0.1-0.5,0.2-1,0.2-1.5C59.7,23.4,59.7,23.2,59.6,23L59.6,23z"/>
<path class="st1" d="M59.3,26.2h7.8c0.9,0,0.9,2.2,0,2.2h-9C58.7,27.7,59,27,59.3,26.2L59.3,26.2z"/>
<path class="st1" d="M57.3,29.3h7.6c0.9,0,0.9,2.2,0,2.2H53.1c-0.1,0-0.2,0-0.3-0.1C54.5,31.2,56,30.5,57.3,29.3L57.3,29.3z"/>
<path class="st0" d="M56.7,18.7c-1.3-1.3-3-2-4.9-2c-1.9,0-3.6,0.7-4.9,2c-1.2,1.3-2,3-2,4.9c0,1.9,0.8,3.6,2,4.9c1.3,1.2,3,2,4.9,2
	c1.9,0,3.6-0.8,4.9-2c1.3-1.3,2-3,2-4.9C58.7,21.7,57.9,20,56.7,18.7z M53.6,23.5c1.1,0.8,1.1,2.2,0,3c-0.3,0.2-0.5,0.3-0.9,0.4v0.6
	c0,0.5-0.6,0.5-0.6,0V27c-0.1,0.1-0.3,0.1-0.5,0.1v0.5c0,0.5-0.6,0.5-0.6,0v-0.6c-0.4,0-0.7-0.2-1-0.4c-0.5-0.5-0.8-0.9-0.8-1.5
	c0-0.7,1.3-0.7,1.3,0c0,0.3,0.2,0.5,0.4,0.5c0.1,0.1,0.1,0.1,0.2,0.2v-1.6c-0.3-0.1-0.6-0.2-1-0.5c-1.1-0.8-1.1-2.1,0-2.9
	c0.3-0.3,0.6-0.4,1-0.5v-0.6c0-0.4,0.6-0.4,0.6,0v0.5H52v-0.5c0-0.4,0.6-0.4,0.6,0v0.6c0.4,0.1,0.6,0.3,0.9,0.5
	c0.5,0.4,0.8,0.9,0.8,1.4c0,0.8-1.3,0.8-1.3,0c0-0.2-0.2-0.4-0.4-0.5l-0.1-0.1v1.6C53,23.2,53.3,23.4,53.6,23.5L53.6,23.5z M52,21.4
	h-0.5V23c0.2,0,0.3,0,0.5,0.1V21.4z M52.7,24.4v1.2c0.1,0,0.1,0,0.1-0.1C53.2,25.3,53.2,24.8,52.7,24.4L52.7,24.4z M52,25.8v-1.6
	h-0.5v1.6C51.8,25.9,52,25.9,52,25.8z M51,21.6c-0.1,0-0.1,0-0.2,0.1c-0.5,0.3-0.5,0.8,0,1.1c0.1,0,0.1,0.1,0.2,0.1V21.6L51,21.6z"
	/>
<path class="st0" d="M75.6,14.9V30h-2V14.9H75.6z M81.9,21.7v1.6h-6.8v-1.6H81.9z M83,14.9v1.6h-7.8v-1.6H83z M87.5,14.9V30h-2V14.9
	H87.5z M102.8,14.9V30h-2l-7.6-11.7V30h-2V14.9h2l7.7,11.7V14.9H102.8z M112.2,16.2l-5,13.8h-2l5.8-15.1h1.3L112.2,16.2z M116.4,30
	l-5-13.8l0-1.3h1.3l5.8,15.1H116.4z M116.1,24.4V26h-8.5v-1.6H116.1z M132.1,14.9V30h-2l-7.6-11.7V30h-2V14.9h2l7.7,11.7V14.9H132.1
	z M144.8,25.2h2c-0.1,1-0.4,1.8-0.8,2.6c-0.4,0.8-1.1,1.4-1.9,1.8c-0.8,0.4-1.8,0.7-3,0.7c-0.9,0-1.7-0.2-2.4-0.5
	c-0.7-0.3-1.3-0.8-1.9-1.4c-0.5-0.6-0.9-1.4-1.2-2.2c-0.3-0.9-0.4-1.8-0.4-2.9v-1.5c0-1.1,0.1-2,0.4-2.9c0.3-0.9,0.7-1.6,1.2-2.2
	c0.5-0.6,1.2-1.1,1.9-1.4c0.7-0.3,1.6-0.5,2.5-0.5c1.1,0,2.1,0.2,2.9,0.6c0.8,0.4,1.4,1,1.8,1.8c0.4,0.8,0.7,1.6,0.8,2.6h-2
	c-0.1-0.7-0.3-1.3-0.5-1.8c-0.3-0.5-0.6-0.9-1.1-1.2c-0.5-0.3-1.1-0.4-1.9-0.4c-0.7,0-1.3,0.1-1.8,0.4c-0.5,0.3-0.9,0.6-1.3,1.1
	c-0.3,0.5-0.6,1-0.8,1.7c-0.2,0.7-0.3,1.4-0.3,2.2v1.5c0,0.7,0.1,1.4,0.2,2.1c0.2,0.7,0.4,1.2,0.7,1.7c0.3,0.5,0.7,0.9,1.2,1.2
	c0.5,0.3,1.1,0.4,1.7,0.4c0.9,0,1.5-0.1,2-0.4c0.5-0.3,0.9-0.7,1.1-1.2C144.5,26.5,144.7,25.9,144.8,25.2z M159.2,28.4V30h-8v-1.6
	H159.2z M151.5,14.9V30h-2V14.9H151.5z M158.1,21.4V23h-7v-1.6H158.1z M159.1,14.9v1.6h-7.9v-1.6H159.1z"/>
</svg>
