<svg width="149" height="31" viewBox="0 0 149 31" fill="none" xmlns="http://www.w3.org/2000/svg">
<path d="M61.9297 20.2734L65.0342 9.35938H66.5381L65.668 13.6025L62.3271 25H60.834L61.9297 20.2734ZM58.7178 9.35938L61.1885 20.0586L61.9297 25H60.4473L56.6553 9.35938H58.7178ZM70.5557 20.0479L72.9727 9.35938H75.0459L71.2646 25H69.7822L70.5557 20.0479ZM66.7637 9.35938L69.7822 20.2734L70.8779 25H69.3848L66.1621 13.6025L65.2812 9.35938H66.7637ZM82.6621 10.7451L77.4844 25H75.3682L81.3301 9.35938H82.6943L82.6621 10.7451ZM87.002 25L81.8135 10.7451L81.7812 9.35938H83.1455L89.1289 25H87.002ZM86.7334 19.21V20.9072H77.9463V19.21H86.7334ZM100.709 23.3135V25H92.8887V23.3135H100.709ZM93.2969 9.35938V25H91.2236V9.35938H93.2969ZM112.568 23.3135V25H104.748V23.3135H112.568ZM105.156 9.35938V25H103.083V9.35938H105.156ZM124.879 23.3135V25H116.597V23.3135H124.879ZM117.016 9.35938V25H114.942V9.35938H117.016ZM123.783 16.084V17.7705H116.597V16.084H123.783ZM124.771 9.35938V11.0566H116.597V9.35938H124.771ZM133.44 9.35938V25H131.399V9.35938H133.44ZM138.468 9.35938V11.0566H126.383V9.35938H138.468Z" fill="black"/>
<path d="M0 25.0209V9.0476H7.34124C8.49638 9.0476 9.46914 9.20733 10.2595 9.52679C11.0651 9.84626 11.673 10.295 12.0834 10.8731C12.509 11.4512 12.7218 12.1282 12.7218 12.904C12.7218 13.8624 12.5014 14.6534 12.0606 15.2772C11.635 15.9009 11.0043 16.3192 10.1683 16.5322L10.0999 16.0986C10.7991 16.266 11.407 16.5398 11.9238 16.9201C12.4406 17.2852 12.8434 17.734 13.1322 18.2665C13.4209 18.7989 13.5653 19.4074 13.5653 20.092C13.5653 20.9287 13.4133 21.6589 13.1094 22.2826C12.8054 22.8911 12.3722 23.4007 11.8098 23.8115C11.2626 24.2222 10.6243 24.5265 9.89472 24.7242C9.18035 24.922 8.40519 25.0209 7.56923 25.0209H0ZM4.55978 21.1416H7.43244C7.72122 21.1416 7.96441 21.096 8.162 21.0047C8.35959 20.8982 8.51158 20.7461 8.61798 20.5484C8.72437 20.3354 8.77757 20.0844 8.77757 19.7953C8.77757 19.5367 8.71677 19.3237 8.59518 19.1564C8.48878 18.9738 8.32919 18.8369 8.1164 18.7457C7.90361 18.6392 7.63763 18.5859 7.31844 18.5859H4.55978V21.1416ZM4.55978 15.3H6.49768C6.84726 15.3 7.12845 15.2543 7.34124 15.1631C7.56923 15.0718 7.72882 14.9425 7.82002 14.7751C7.92641 14.5926 7.97961 14.372 7.97961 14.1134C7.97961 13.7635 7.85802 13.4821 7.61483 13.2691C7.38684 13.0409 6.99926 12.9268 6.45208 12.9268H4.55978V15.3Z" fill="black"/>
<path d="M24.4686 25.0209L19.5213 17.8557L13.1832 9.0476H19.0881L23.9215 16.1215L30.3735 25.0209H24.4686ZM24.2862 17.6047L20 15.8705L23.0412 11.8632C24.8882 9.42944 27.7675 8 30.8227 8L24.2862 17.6047Z" fill="black"/>
<path d="M19.1793 16.3953L23.4655 18.1295L20.1511 22.4968C18.4761 24.7039 15.8663 26 13.0972 26H12.6428L19.1793 16.3953Z" fill="black"/>
<path d="M52.5384 23.6394C52.5229 23.6607 52.5055 23.6821 52.4784 23.7169C52.2497 24.0327 51.9824 24.2827 51.6608 24.4726C51.2054 24.7419 50.7094 24.8349 50.1844 24.8329C45.2166 24.831 40.2489 24.8271 35.2831 24.8368C34.5662 24.8368 33.9772 24.6062 33.5083 24.0521C33.2429 23.6898 33.1072 23.2887 33.0569 22.8489C33.0549 22.816 33.0491 22.7908 33.0452 22.7521C33.0452 21.7 33.0452 20.6615 33.0452 19.6211C33.0452 16.6315 33.0452 13.6419 33.0491 10.6407C33.0898 10.1544 33.2351 9.72431 33.5606 9.36587C33.9559 8.92994 34.4771 8.76525 35.037 8.68775C35.4303 8.63156 35.8314 8.61025 36.2169 8.52112C37.2942 8.277 38.3656 8.00575 39.439 7.74419C40.5705 7.46713 41.702 7.18619 42.8335 6.90525C44.2614 6.55069 45.6913 6.20581 47.1154 5.83575C47.7063 5.68269 48.2566 5.66912 48.7623 6.06244C48.7623 6.07212 48.7681 6.07794 48.7874 6.09344C48.8126 6.11475 48.8262 6.12444 48.8398 6.13606C48.8398 6.13606 48.8398 6.13219 48.8417 6.13994C48.8572 6.15931 48.8708 6.17094 48.8843 6.18256C48.8843 6.19225 48.8901 6.20194 48.9095 6.21937C49.1401 6.49644 49.2583 6.80644 49.3416 7.13775C49.4462 7.55625 49.5644 7.96894 49.6787 8.3855C49.6787 8.3855 49.6748 8.3855 49.6613 8.3855C49.2428 8.38356 48.8398 8.37969 48.4348 8.37581C48.4348 8.37581 48.4348 8.37969 48.4368 8.36612C48.3379 7.998 48.2449 7.6415 48.1364 7.28887C48.1113 7.20944 48.0357 7.14356 47.9834 7.07187C47.9834 7.07187 47.9814 7.07575 47.9795 7.068C47.9679 7.05444 47.9582 7.04862 47.9485 7.04087C47.9485 7.04087 47.9485 7.04475 47.9485 7.03506C47.8071 6.913 47.6501 6.93819 47.499 6.97694C46.29 7.27531 45.081 7.5795 43.872 7.88175C42.8974 8.12394 41.9209 8.36225 40.9444 8.60444C40.6073 8.68775 40.2702 8.77106 39.9331 8.85437C39.9331 8.86019 39.9331 8.866 39.935 8.87181C39.9757 8.87181 40.0144 8.87181 40.0551 8.87181C43.4244 8.87181 46.7957 8.86987 50.165 8.87181C50.4246 8.87181 50.6881 8.89894 50.9458 8.94156C51.5329 9.04037 52.0231 9.32131 52.4028 9.78631C52.8136 10.2881 52.9899 10.8732 52.9996 11.5087C53.0131 12.462 53.0034 13.4153 53.0034 14.3685C53.0034 14.4228 53.0034 14.477 53.0034 14.5487C53.1526 14.5487 53.2863 14.5487 53.4219 14.5487C53.7668 14.5487 53.9664 14.7502 53.9664 15.0931C53.9664 16.3196 53.9664 17.5441 53.9664 18.7705C53.9664 19.096 53.7668 19.3014 53.4433 19.3052C53.2979 19.3072 53.1546 19.3052 53.0015 19.3052C53.0015 19.3711 53.0015 19.4215 53.0015 19.4719C53.0015 20.2934 53.0034 21.1168 52.9976 21.9383C52.9976 22.1437 52.9705 22.351 52.9434 22.5544C52.8969 22.9129 52.7535 23.2403 52.5888 23.5581C52.5888 23.5581 52.5888 23.5581 52.5811 23.5658C52.5617 23.5929 52.5501 23.6142 52.5384 23.6356M47.6056 15.1377C47.6056 15.1377 47.6211 15.1183 47.6482 15.1106C47.6773 15.0892 47.7063 15.066 47.7548 15.0369C47.7819 15.0117 47.809 14.9846 47.8323 14.9575C47.8323 14.9575 47.8323 14.9614 47.8478 14.9556C47.8536 14.9459 47.8613 14.9362 47.8632 14.9265C47.8632 14.9265 47.8633 14.9304 47.8865 14.9284C47.9311 14.8974 47.9756 14.8684 48.0144 14.8374C48.0144 14.8374 48.0144 14.8413 48.0338 14.8374C48.0493 14.8277 48.0648 14.8161 48.0764 14.8064C48.0764 14.8064 48.0764 14.8083 48.0996 14.8064C48.4348 14.6417 48.7894 14.5564 49.1594 14.5526C50.0468 14.5467 50.9323 14.5506 51.8196 14.5506C51.8778 14.5506 51.9378 14.5506 52.0056 14.5506C52.0056 14.1224 52.0095 13.7136 52.0056 13.3067C51.9979 12.6616 51.994 12.0183 51.9688 11.3751C51.9591 11.1096 51.8913 10.85 51.7169 10.6097C51.6646 10.5419 51.6123 10.4741 51.5581 10.4082C51.5581 10.4082 51.56 10.4082 51.5542 10.3927C51.5445 10.3869 51.5348 10.3811 51.5251 10.3792C51.5251 10.3792 51.5309 10.3792 51.5251 10.3617C51.5154 10.3559 51.5058 10.3482 51.498 10.3462C51.498 10.3462 51.5019 10.3462 51.4941 10.3288C51.4748 10.3133 51.4554 10.2978 51.4321 10.2707C51.4263 10.2629 51.4186 10.2591 51.3992 10.2416C51.3721 10.2261 51.343 10.2087 51.312 10.1796C51.3062 10.1719 51.3004 10.168 51.281 10.1467C51.2616 10.1409 51.2423 10.1351 51.2229 10.1331C51.2229 10.1331 51.2268 10.1331 51.2229 10.1118C51.1279 10.0672 51.0388 9.99556 50.94 9.982C50.6068 9.93356 50.2716 9.87737 49.9383 9.87544C44.9861 9.86962 40.0319 9.8735 35.0796 9.87544C34.5972 9.87544 34.2794 10.1661 34.2213 10.6737C34.2194 10.7589 34.2155 10.8442 34.2155 10.9314C34.2155 14.5874 34.2155 18.2454 34.2155 21.9015C34.2155 22.2037 34.2155 22.506 34.2271 22.8082C34.2349 23.0078 34.3066 23.188 34.4538 23.3585C34.634 23.5755 34.8626 23.684 35.1765 23.6743C35.2172 23.6743 35.2579 23.6743 35.2966 23.6743C39.8129 23.6743 44.3312 23.6743 48.8475 23.6743C49.3978 23.6743 49.9461 23.6704 50.5215 23.6743C51.0214 23.6394 51.4341 23.4437 51.7111 23.0117C51.9378 22.6591 51.9921 22.258 51.9979 21.855C52.0114 21.0335 52.0037 20.212 52.0056 19.3924C52.0056 19.3672 51.9998 19.344 51.9959 19.3052C51.9378 19.3052 51.8836 19.3052 51.8293 19.3052C50.9478 19.3052 50.0662 19.3111 49.1846 19.3033C48.9715 19.3014 48.7564 19.2626 48.5453 19.2239C48.3941 19.1967 48.2508 19.1386 48.0899 19.0902C48.0783 19.0824 48.0648 19.0747 48.0454 19.0495C48.0357 19.0456 48.0241 19.0417 48.0047 19.034C48.0047 19.034 47.995 19.034 47.9873 19.0166C47.9349 18.9778 47.8826 18.9391 47.8323 18.9003C47.0708 18.3365 46.7492 17.5789 46.8402 16.6412C46.8848 16.1781 47.0766 15.7732 47.3731 15.3993C47.3847 15.3799 47.3983 15.3624 47.4254 15.3353C47.4351 15.3198 47.4448 15.3043 47.4467 15.283C47.4467 15.283 47.4409 15.2908 47.4641 15.2888C47.4738 15.2772 47.4816 15.2656 47.5068 15.252C47.5261 15.2288 47.5455 15.2074 47.5823 15.1726C47.5862 15.159 47.592 15.1454 47.5901 15.1338C47.5901 15.1338 47.5901 15.1396 47.6094 15.1338M49.948 17.7863C49.948 17.7863 49.948 17.7785 49.9674 17.7688C50.2251 17.5131 50.3607 17.2011 50.3239 16.8427C50.2503 16.1297 49.6535 15.6763 48.9444 15.7713C48.1326 15.8817 47.6966 16.9202 48.1868 17.5886C48.1965 17.6002 48.2062 17.6138 48.2178 17.6235C48.2178 17.6235 48.2159 17.6235 48.2178 17.6448C48.3379 17.8172 48.5007 17.9412 48.6944 18.0168C49.0568 18.1582 49.4113 18.1718 49.7407 17.9257C49.7407 17.9257 49.7407 17.9277 49.762 17.9257C49.7853 17.9044 49.8104 17.8831 49.8492 17.8579C49.8627 17.8424 49.8783 17.8269 49.9093 17.8056C49.9151 17.7959 49.9228 17.7882 49.9286 17.7901C49.9286 17.7901 49.9403 17.7901 49.948 17.7882V17.7863Z" fill="#219FFF"/>
<path d="M52.5501 23.6375C52.5501 23.6181 52.5636 23.5988 52.583 23.5716C52.5811 23.5891 52.5714 23.6123 52.5501 23.6375Z" fill="#E3E3E3"/>
<path d="M48.8378 6.12637C48.8262 6.12637 48.8126 6.11475 48.7933 6.09537C48.8049 6.09731 48.8204 6.107 48.8378 6.12637Z" fill="#E3E3E3"/>
<path d="M48.8843 6.17481C48.8727 6.17287 48.8591 6.16125 48.8417 6.14187C48.8514 6.14381 48.8669 6.15544 48.8843 6.17481Z" fill="#E3E3E3"/>
<path d="M47.9562 7.0525C47.9562 7.0525 47.9725 7.05858 47.9866 7.07478C47.9806 7.07478 47.9725 7.06871 47.9562 7.0525Z" fill="#E3E3E3"/>
<path d="M47.8729 14.9304C47.9059 14.8994 47.9504 14.8684 48.0047 14.8393C47.9717 14.8703 47.9272 14.8994 47.8729 14.9304Z" fill="#E3E3E3"/>
<path d="M47.7451 15.0408C47.7625 15.0156 47.7896 14.9885 47.8264 14.9594C47.809 14.9846 47.7819 15.0117 47.7451 15.0408Z" fill="#E3E3E3"/>
<path d="M49.7504 17.9277C49.7639 17.9083 49.7872 17.8851 49.8221 17.8637C49.8085 17.8851 49.7853 17.9044 49.7504 17.9277Z" fill="#E3E3E3"/>
<path d="M51.4961 10.3385C51.4806 10.3327 51.4592 10.3172 51.4379 10.2939C51.4554 10.2998 51.4747 10.3153 51.4961 10.3385Z" fill="#E3E3E3"/>
<path d="M48.0221 14.8412C48.0221 14.8412 48.0434 14.8219 48.0686 14.8103C48.0628 14.8199 48.0473 14.8296 48.0221 14.8412Z" fill="#E3E3E3"/>
<path d="M47.4137 15.3431C47.4137 15.3334 47.4254 15.3179 47.4428 15.2966C47.4428 15.3062 47.4312 15.3218 47.4137 15.3431Z" fill="#E3E3E3"/>
<path d="M47.4467 15.294C47.4467 15.294 47.4568 15.2778 47.4771 15.2636C47.4771 15.2697 47.4669 15.2819 47.4467 15.294Z" fill="#E3E3E3"/>
<path d="M48.0467 19.0618C48.0467 19.0618 48.0325 19.0578 48.0163 19.0456C48.0204 19.0456 48.0325 19.0476 48.0467 19.0618Z" fill="#E3E3E3"/>
<path d="M49.8996 17.8087C49.8996 17.8087 49.9077 17.7945 49.9218 17.7824C49.9218 17.7864 49.9158 17.7966 49.8996 17.8087Z" fill="#E3E3E3"/>
<path d="M49.9441 17.7475C49.9441 17.7475 49.948 17.7533 49.948 17.7688C49.948 17.7785 49.948 17.7863 49.9441 17.7882C49.9403 17.7785 49.9403 17.7669 49.9441 17.7475Z" fill="#E3E3E3"/>
<path d="M47.5668 15.1822C47.5668 15.1822 47.5707 15.1648 47.5842 15.1435C47.5842 15.1493 47.5823 15.1629 47.5668 15.1822Z" fill="#E3E3E3"/>
<path d="M47.5959 15.1409C47.5959 15.1409 47.604 15.1267 47.6222 15.1125C47.6222 15.1166 47.6141 15.1267 47.5959 15.1409Z" fill="#E3E3E3"/>
<path d="M47.8381 14.9587C47.8381 14.9587 47.8441 14.9446 47.8604 14.9304C47.8604 14.9344 47.8543 14.9446 47.8381 14.9587Z" fill="#E3E3E3"/>
<path d="M51.5574 10.4033C51.5574 10.4033 51.5432 10.3972 51.529 10.3831C51.5331 10.3831 51.5432 10.3891 51.5574 10.4033Z" fill="#E3E3E3"/>
<path d="M36.1416 13.6865C36.1416 13.6865 36.1457 13.6987 36.1436 13.7068C36.1355 13.7068 36.1335 13.6987 36.1416 13.6865Z" fill="#E3E3E3"/>
<path d="M36.2014 13.6671C36.2576 13.4772 36.2944 13.2912 36.3778 13.1285C36.5754 12.7391 36.9067 12.5201 37.3446 12.4426C39.5146 12.4368 41.6749 12.4368 43.8507 12.4349C44.1316 12.4911 44.3913 12.5569 44.6141 12.7294C44.9628 13.0006 45.1624 13.3591 45.1643 13.7931C45.174 15.8914 45.174 17.9897 45.1663 20.0861C45.1643 20.8417 44.5889 21.4481 43.8526 21.452C41.7349 21.4617 39.6173 21.4597 37.4996 21.4501C36.8408 21.4462 36.3293 20.9676 36.2286 20.3147C36.2228 20.2798 36.2131 20.2449 36.2014 20.2004C36.1956 18.166 36.1937 16.1413 36.1956 14.1166C36.1956 13.9713 36.2014 13.8241 36.2034 13.6652M37.3911 20.3961C37.4686 20.4154 37.5441 20.4503 37.6216 20.4503C39.6541 20.4542 41.6865 20.4542 43.7189 20.4503C43.8023 20.4503 43.8875 20.4019 43.9844 20.3689C43.996 20.3534 44.0057 20.3379 44.0348 20.3147C44.0406 20.3031 44.0444 20.2934 44.0464 20.2876C44.0464 20.2876 44.0522 20.2914 44.0735 20.2876C44.1064 20.2023 44.1684 20.1151 44.1684 20.0299C44.1743 17.9722 44.1723 15.9127 44.1723 13.8551C44.1723 13.6129 44.027 13.4714 43.7848 13.4714C41.7214 13.4714 39.6579 13.4714 37.5945 13.4714C37.3388 13.4714 37.1973 13.6167 37.1973 13.8764C37.1973 14.4169 37.1973 14.9556 37.1973 15.4961C37.1973 16.9938 37.1973 18.4934 37.1973 19.9911C37.1973 20.1519 37.2264 20.2992 37.3872 20.3806C37.3872 20.3806 37.3833 20.3806 37.3969 20.3999L37.3911 20.3961Z" fill="#219FFF"/>
<path d="M44.0251 20.3199C44.0251 20.3199 44.0311 20.3057 44.0433 20.2895C44.0433 20.2935 44.0392 20.3057 44.0251 20.3199Z" fill="#E3E3E3"/>
<path d="M39.0554 18.5554C38.6098 18.0633 38.4567 17.4743 38.4606 16.8272C38.4644 16.3893 38.4606 15.9495 38.4586 15.5116C38.4586 15.2443 38.5904 15.1048 38.8519 15.0718C39.4196 14.9982 39.9641 14.8374 40.4678 14.5642C40.6209 14.4809 40.7488 14.4809 40.9038 14.5661C41.4114 14.8471 41.9636 14.9963 42.5371 15.0699C42.7909 15.1028 42.9381 15.2423 42.9381 15.4942C42.9362 16.058 42.9304 16.6238 42.9091 17.1876C42.8819 17.887 42.5313 18.4256 41.9965 18.8383C41.6439 19.1096 41.2486 19.3246 40.8728 19.5629C40.7565 19.6366 40.6325 19.6385 40.5143 19.5726C39.997 19.2898 39.4778 19.0069 39.0651 18.5574C39.0554 18.5535 39.0515 18.5574 39.0534 18.5574M39.9854 17.8793C40.0609 17.9529 40.1307 18.0323 40.2121 18.1021C40.3477 18.2203 40.493 18.2222 40.6189 18.0982C41.1382 17.5925 41.6555 17.0829 42.167 16.5676C42.2232 16.5114 42.2523 16.4068 42.2523 16.3254C42.2523 16.1956 42.1728 16.1026 42.0449 16.058C41.9074 16.0076 41.7989 16.0541 41.7039 16.151C41.3203 16.5308 40.9386 16.9105 40.555 17.2903C40.4116 17.4336 40.4116 17.4317 40.276 17.2922C40.1481 17.1624 40.0203 17.0345 39.8885 16.9105C39.7413 16.7729 39.5514 16.7691 39.4332 16.8969C39.3111 17.0268 39.3189 17.2128 39.4584 17.3542C39.6289 17.5266 39.8013 17.6952 39.9873 17.8812L39.9854 17.8793Z" fill="#219FFF"/>
</svg>
